<?xml version="1.0" encoding="utf-8"?>
<!-- Generator: Adobe Illustrator 23.0.0, SVG Export Plug-In . SVG Version: 6.00 Build 0)  -->
<svg version="1.1" id="Layer_1" xmlns="http://www.w3.org/2000/svg" xmlns:xlink="http://www.w3.org/1999/xlink" x="0px" y="0px"
	 viewBox="0 0 83 15.3" style="enable-background:new 0 0 83 15.3;" xml:space="preserve">
<style type="text/css">
	.st0{fill:#FFFFFF;}
</style>
<title>Freightliner</title>
<g>
	<path class="st0" d="M47.4,4.1c0,0,1.8-0.5,3,1.3l5.5,7.6l5.6-7.8c0,0,1-1.3,2.7-1.1l-7.4,10c0,0-0.4,0.6-1,0.6c0,0-0.4,0-0.9-0.6
		C54.3,13.4,47.4,4.1,47.4,4.1z M65.5,4.1v9.5c0,0,0.1,1,1.5,0.9V5.2C67,5.2,67,4.3,65.5,4.1z M66.3,0.8c-0.5,0-0.9,0.5-0.9,1
		c0,0.6,0.4,1,0.9,1c0.5,0,0.9-0.5,0.9-1C67.2,1.3,66.8,0.8,66.3,0.8z M34.7,9.1c0,4.2,3.6,4.1,3.6,4.1h5c3.2-0.8,3-3.9,3-3.9
		c0.1-3.4-3-3.8-3-3.8h-5.1C38.2,5.5,34.7,5.8,34.7,9.1z M34.7,5.6c0,0,1.3-1.5,3.5-1.5l5,0c0,0,4.6,0.7,4.5,5.2
		c-0.1,3.6-2.8,5.1-4.5,5.2h-5.1c0,0-5.1,0.2-5-5.5V0.6c0,0,1.3,0,1.5,0.8C34.7,2.8,34.7,5.6,34.7,5.6z M18.3,9.1
		c0,4.2,3.6,4.1,3.6,4.1h5c3.2-0.8,3-3.9,3-3.9c0.1-3.4-3-3.8-3-3.8h-5.1C21.8,5.5,18.3,5.8,18.3,9.1z M18.3,5.6
		c0,0,1.3-1.5,3.5-1.5l5,0c0,0,4.6,0.7,4.5,5.2c-0.1,3.6-2.8,5.1-4.5,5.2h-5.1c0,0-5.1,0.2-5-5.5V0.6c0,0,1.3,0,1.5,0.8
		C18.3,2.8,18.3,5.6,18.3,5.6z M69,9c-0.2,5.6,5,5.5,5,5.5h8.4c-0.1-1.2-1.1-1.2-1.1-1.2h-7.3c-3.7-0.6-3.4-3.3-3.4-3.3l9.2,0
		c0.7,0,2.8-0.4,2.8-3c0-2.7-2.8-2.7-2.8-2.7h-5.7C69,4.4,69,9,69,9z M70.6,8.5c0,0,0.3-2.5,3.1-3h5.8c0,0,1.6,0,1.7,1.4
		c0.1,1.2-0.8,1.5-1.7,1.5L70.6,8.5z M5.6,14.4c0.5,0,3.9,0,3.9,0c3.2,0.1,4.4-2.3,4.4-2.3c0.2,1.7,0.4,1.8,0.7,2.1
		c0.3,0.3,1.3,0.2,1.3,0.2l-1.1-5.7C13.7,4,10.3,4.1,9.5,4C8.7,3.9,5.6,4,5.6,4C0.3,4.5,0.4,9.2,0.4,9.2C0.5,14.3,5.1,14.4,5.6,14.4
		z M1.9,9.2c0,0,0-3.6,3.8-3.8c0.4-0.1,3,0,3.9,0c0.8,0,3.6,0.6,3.7,3.8c0,3.1-2.2,3.8-3.7,3.9c-1.5,0.1-3.3,0-3.9,0
		C5,13,2,12.8,1.9,9.2z"/>
</g>
</svg>
