<?xml version="1.0" encoding="utf-8"?>
<!-- Generator: Adobe Illustrator 23.0.0, SVG Export Plug-In . SVG Version: 6.00 Build 0)  -->
<svg version="1.1" id="Layer_1" xmlns="http://www.w3.org/2000/svg" xmlns:xlink="http://www.w3.org/1999/xlink" x="0px" y="0px"
	 viewBox="0 0 81.2 29.1" style="enable-background:new 0 0 81.2 29.1;" xml:space="preserve">
<style type="text/css">
	.st0{fill:#FFFFFF;}
</style>
<g>
	<path class="st0" d="M31.1,23.7c-2.9-1.9-7-2.2-13.4-0.4c-6.9,1.6-9.2,2.7-12.2,0.6c-1.2-1-1.6-2.7-1.3-5c0.7-3.9,2.7-7.6,6.1-11.7
		c1.9-2.1,3.7-4,6.1-4.7c1.8-0.5,1.6,1,1.4,1.2c-0.2,0-0.6,0-0.9,0.2C16.7,3.9,16,4.5,16,5.4c-0.1,1.3,1.2,1,1.8,0.3
		c0.6-0.8,1.5-2.3,0.8-3.6c-0.3-0.5-0.8-0.8-1.4-0.9c-2.2-0.1-4.2,0.9-6,2C7,5.9,3.8,9.8,1.9,14.1c-1.1,2.6-2,6.3-0.6,9.3
		c1.1,2.1,3.4,3.2,6.2,3c1.9-0.2,4.3-0.8,5.8-1.2c1.6-0.4,9.6-3.1,12.2,1.7c0,0,0.9-1.7,3.1-1.7c1.8-0.2,4.4,0.5,6.3,1.9
		C34.4,26.1,32.6,24.7,31.1,23.7z"/>
	<path class="st0" d="M18.5,7.6c-1.5-1-4.5,0.9-6.9,4.1c-2.2,2.9-3.2,6.3-2.1,7.8c1.5,1.8,4.4-0.8,5.6-2.3l0.2-0.2
		c0.8-0.9,1.5-2,2.1-3c0,0,0.6-0.9,0.6-1c0.4-0.1,0.8-0.2,1.3-0.3c0,0-1.8,3.1-1.6,4.6c0.1,0.5,0,2.2,1.7,2.7c2.2,0.4,4-1.3,5.5-2.9
		c0,0,0.3-0.3,0.4-0.4c0,0.2-0.1,0.4-0.1,0.4c-0.6,2.2,0.2,2.7,0.8,2.9c1.6,0.5,3.6-1.9,3.6-1.9c-0.1,0.8-0.2,1.4,0.6,1.9
		c0.7,0.3,1.5-0.1,2.1-0.5c2.1-1.5,3.8-3.8,5.1-5.7h-0.9c0,0-2.1,3.1-3.5,3.7c0,0-0.3,0.1-0.4,0c-0.2-0.2-0.1-0.5,0-0.7
		c0,0,5.3-9.2,5.3-9.2h-2.5c0,0-0.3,0.4-0.3,0.5c0,0-0.1-0.1-0.1-0.1c-1.6-2.1-5.1,1.2-7.7,5c-1,1.5-2.3,3.1-3.7,4.3
		c0,0-2,1.8-2.8,0.5c-0.3-0.6-0.2-1.4,0-1.9c1-2.8,2.7-5.4,4.6-6.9c0.5-0.4,1.1-0.6,1.4-0.4C27,8.8,27,9.2,26.9,9.5
		c-0.5,0-0.8,0.1-1.1,0.4c-0.6,0.6-0.8,1.2-0.6,1.7c0.9,1.3,2.7-1.2,2.6-2.8c0-0.6-0.3-1.1-0.8-1.3c-0.7-0.4-1.7-0.3-2.3,0
		c-0.9,0.3-2.2,1.5-3,2.3c-1,1.1-2.7,2.3-3.3,2.2C18.6,11.7,20,8.7,18.5,7.6L18.5,7.6z M30.6,12c0.5-0.7,1.9-2.5,2.3-2.8
		c1.2-1,1.6-0.6,1.7-0.3c-1.1,1.9-2.4,4.2-3.6,6.2c0,0-0.4,0.6-0.4,0.6c-0.5,0.8-1.1,1.5-1.9,2c-0.1,0-0.3,0.1-0.5-0.1
		c-0.2-0.1-0.2-0.3-0.2-0.5C28,16.5,28.6,14.6,30.6,12L30.6,12z M16.9,13.1C16.9,13.1,16.9,13.2,16.9,13.1c0,0.1-1.1,1.9-1.1,1.9
		c-0.7,0.9-1.5,2-2.5,2.5c-0.3,0.1-0.7,0.2-0.9-0.1c-0.5-0.5-0.2-1.3,0-1.9l0.1-0.2c0.5-1.5,1.4-2.8,2.3-4c0,0,0,0,0,0c0,0,0,0,0,0
		c0.5,1,1.5,1.5,2.3,1.7c0,0,0,0,0,0C17,13,17,13.1,16.9,13.1L16.9,13.1z M18,11c0,0-0.5,1.1-0.5,1.1c-0.1,0.1-0.2,0-0.3,0l-0.2,0
		c-0.7-0.2-1.2-0.7-1.3-1.2c-0.2-1,0.7-1.9,1.1-2.2c0.4-0.3,1-0.4,1.3-0.1c0.2,0.2,0.3,0.6,0.3,0.9C18.3,10,18.1,10.6,18,11z
		 M49.6,14.4c-0.2-0.5-0.8-0.9-1.4-0.8c-2,0.2-3.9,1.8-4.9,4.2c-0.5,1.2-0.8,2.2-1,3.8c0.6-0.7,1.9-1.9,3.3-2.5c0,0,0.2-1.5,1.2-2.9
		c0.4-0.6,1.1-1.5,2-1.2c0.7,0.2,0.5,2.3-0.5,4.3c-0.7,1.5-1.8,2.9-3,3.9c-1,0.8-2.5,1.9-3.7,1.1c-0.8-0.5-1.2-1.5-1.1-2.8
		c0.4-3.7,2.1-6.8,4.4-10.3c2.5-3.3,5.2-6.7,8.8-8.5c0.7-0.4,1.4-0.5,2-0.2c0,0-3.4,1.9-5.1,5.4c-0.4,0.9-1,2.1-0.4,3.1
		c0.3,0.6,0.8,0.6,1.3,0.6c2-0.5,3.3-2.3,4.4-4c0.6-1.3,1.2-2.6,1.2-4c0-0.2,0-0.4,0-0.6c1-0.5,2.9,0.4,2.9,0.4
		c1.5,0.5,4.8,3,5.9,3.5c0.5-0.6,1.4-1.6,1.9-2L67,4.2c-1.2-0.7-2.4-1.4-3.6-2c-2.7-1.5-4.9-1-6.1-0.6c-0.4,0.2-0.8,0.3-0.8,0.3
		C55.7,1,54.3,1,53.3,1.3c-3.6,1-7,3.6-10.6,8c-2.7,3.5-4.3,6.4-5.2,9.4c-0.7,2-0.9,4.9,0.8,6.6c1.4,1.5,3.3,1.2,4.6,0.6
		c2.9-1.4,5.4-4.4,6.7-7.9C49.8,17,50.2,15.5,49.6,14.4L49.6,14.4z M56.2,3.5c-0.4,4.3-3.7,6.9-4.6,7.1c-0.5,0.1-1.4-0.1-0.6-1.9
		c1.1-2.5,3.1-4.5,5.1-5.6C56.2,3.2,56.2,3.3,56.2,3.5L56.2,3.5z M76.2,4c-1.8,1-3.7,1.7-6,1.5c-0.6,0.7-1.2,1.4-1.8,2.2
		c3.2,0.8,6.6-1,8.5-2.7c2-1.7,3-3.9,3-3.9S78.4,2.8,76.2,4z M41.9,7.6h-2.4l-1.3,2.2h2.4L41.9,7.6z"/>
	<path class="st0" d="M70.2,23.9c-0.3,0.2-0.6,0-0.5-0.4c0.3-1,1.7-3.1,1.7-3.1l3.7-6.6h-2.5c-0.1,0.2-0.4,0.7-0.4,0.7
		c-0.1-0.2-0.5-0.6-0.6-0.7C71,13.4,70,13.6,69.4,14c-2.7,1.6-4.7,4.7-6.3,7.2c0,0-1.7,2.7-2.6,2.9c-0.7,0.1-0.6-0.9-0.6-1.1
		c0.3-1.6,0.9-3.2,1.6-4.6c1.3-0.9,2.8-2.1,4.2-3.4c3-2.8,5.5-6,5.8-6.8c0,0-0.4,0.1-0.9,0.1c-2.3,3.2-7,7.8-8.4,8.5
		c0.6-1.5,4.7-8.7,8.1-12.2L71,4.1c0.8-0.8,1.7-1.7,2.4-1.8c0.1,0,0.2,0,0.2,0.2c0,0.6-0.2,1.1-0.5,1.6l-0.4,0.8
		c0,0,0.5-0.1,0.9-0.2C74,3.9,74.5,3.1,74.3,2c-0.1-0.3-0.3-0.6-0.6-0.6c-1-0.2-2.1,0.6-3.1,1.2l0,0c-4.6,3.6-8.6,8.9-12,16
		c-0.2,0.2-1.2,0.4-1.4,0.3c0.3-0.7,0.8-1.6,1-2.6c0-0.3,0.1-0.6,0.1-0.9c0-0.6-0.1-1.2-0.7-1.6c-0.7-0.3-1.5-0.2-2,0.1
		c-2.4,1-4.3,3.5-5.6,5.6c-0.7,1.3-1.4,2.7-1.6,4.3c-0.1,1.3,0.1,2.1,0.9,2.5c0.7,0.4,1.7,0,2-0.2c2.5-1.3,4.2-3.9,5.6-6.3
		c0.1,0,0.8,0,1.4-0.2c0,0,0,0,0,0c0,0.1-0.3,1-0.3,1c-0.9,2.5-1.3,4.3-0.4,5.3c1.2,1.4,3.1-0.1,4.7-2c-0.3,2.4,0.9,2.7,1.8,2.6
		c1.1-0.3,2.3-1.4,2.8-2c-0.2,0.7-0.1,1.9,0.8,2c0.7,0.1,1.2-0.2,1.7-0.6c2.1-1.1,4.6-4.9,5.2-6h-0.8C72.9,21.2,71.7,23,70.2,23.9
		L70.2,23.9z M51.6,23.7c-0.1-0.2-0.2-0.4-0.2-0.6c0-1.4,1.5-4,2.6-5.4h0c0.5,1,1.5,1.6,2.1,1.9C55.3,21.3,52.7,24.9,51.6,23.7
		L51.6,23.7z M56.5,18.8c-0.1,0.1-1.4-0.4-1.6-1.6c-0.2-1,0.5-1.8,1.2-2.2c0.3-0.2,0.7-0.3,1.1-0.2c0.3,0.2,0.4,0.6,0.4,1
		c0,0.2,0,0.5-0.1,0.7l0,0.1C57.2,17.3,56.9,18.1,56.5,18.8L56.5,18.8z M66.9,23.2c0,0-0.2,0.2-0.2,0.2c-0.3,0.3-0.7,0.6-1.1,0.5
		c-0.1,0-0.2-0.2-0.2-0.3c0-0.9,0.4-1.7,0.8-2.5l0.1-0.2c1.1-1.9,2.4-4.1,4.3-5.6c0.3-0.2,0.7-0.4,1-0.3c0.1,0.1,0.2,0.2,0.2,0.4
		c0,0,0,0.2-0.1,0.2c-0.5,0.9-1,1.8-1.5,2.6C69.1,19.9,68.1,21.6,66.9,23.2z"/>
</g>
</svg>
