<?xml version="1.0" encoding="utf-8"?>
<!-- Generator: Adobe Illustrator 24.0.3, SVG Export Plug-In . SVG Version: 6.00 Build 0)  -->
<svg version="1.1" id="Layer_1" xmlns="http://www.w3.org/2000/svg" xmlns:xlink="http://www.w3.org/1999/xlink" x="0px" y="0px"
	 viewBox="0 0 125.1 92.5" style="enable-background:new 0 0 125.1 92.5;" xml:space="preserve">
<style type="text/css">
	.st0{fill-rule:evenodd;clip-rule:evenodd;fill:#FFFFFF;}
</style>
<path class="st0" d="M62.5,88.8c19.6,0,37-6.8,47.7-17.4l-9.7,0C91.4,79.1,78,84,62.8,84c-28.4,0-50.5-16.9-50.5-37.7
	c0-24,22.1-37.7,50.5-37.7c1.8,0,3.2,0.8,2.2,2.4C59,18,42.3,40.8,39.2,45.8c-6,9.8-5.9,21.8,8.9,22.6h62.2c3.2,0,4-1.5,5.1-3
	c4.1-5.5,6.3-12.2,6.3-19.1c0-17.9-12.6-31.3-31.2-38l-2.9,4.3c15.4,5.7,25.6,17.2,25.6,33.7c0,2.9-0.4,5.6-1.2,8.3
	c-0.7,2.3-2,4.3-4.6,4.3H57.8c-6.4,0-3.9-6.6-1.5-9.7c3.4-6.1,22.1-31.6,26.6-36.4C84,11,87.3,7.4,82.8,6
	c-6.3-1.5-13.2-2.3-20.3-2.3C29.8,3.7,3.4,20.5,3.4,46.3C3.3,72.2,29.8,88.8,62.5,88.8L62.5,88.8z"/>
</svg>
