<?xml version="1.0" encoding="utf-8"?>
<!-- Generator: Adobe Illustrator 23.0.0, SVG Export Plug-In . SVG Version: 6.00 Build 0)  -->
<svg version="1.1" id="Layer_1" xmlns="http://www.w3.org/2000/svg" xmlns:xlink="http://www.w3.org/1999/xlink" x="0px" y="0px"
	 viewBox="0 0 34.5 34.7" style="enable-background:new 0 0 34.5 34.7;" xml:space="preserve">
<style type="text/css">
	.st0{fill:#FFFFFF;}
</style>
<title>Apple</title>
<path class="st0" d="M0.8,0.8v32.9h32.9V0.8H0.8z M6.5,10.2c0-2.2,1.4-4,4-4c2.5,0,4.2,1.1,4.2,4.1l0,1.3l-2.6,0l0-1.7
	c0-0.7-0.9-1.3-1.6-1.3c-0.8,0-1.5,0.6-1.5,1.4l0,8.9c0,1,0.7,1.5,1.3,1.5c1.3,0,1.9-0.6,1.9-1.6l-0.1-3h-1.3l0-2l3.9,0l0,8.7
	l-2.5,0v-1.3c-0.3,1.1-1.5,1.6-2.8,1.6c-0.8,0-2.9-0.5-2.9-4.3V10.2z M28.2,28.3H6.3v-3.6h21.9V28.3z M28.2,22.2h-2.4v0V11
	l-2.1,11.2h-1.8l-2.1-11.5c0.1,0.9,0.1,11.4,0.1,11.4h-2.5V6.5l3.5,0c0,0,1.8,10.1,1.9,11.3l1.8-11.4l3.6,0L28.2,22.2z"/>
</svg>
