<?xml version="1.0" encoding="utf-8"?>
<!-- Generator: Adobe Illustrator 23.0.0, SVG Export Plug-In . SVG Version: 6.00 Build 0)  -->
<svg version="1.1" id="Layer_1" xmlns="http://www.w3.org/2000/svg" xmlns:xlink="http://www.w3.org/1999/xlink" x="0px" y="0px"
	 viewBox="0 0 83 13.2" style="enable-background:new 0 0 83 13.2;" xml:space="preserve">
<style type="text/css">
	.st0{fill:#FFFFFF;}
</style>
<title>Freightliner</title>
<g>
	<polygon class="st0" points="46.9,12.2 44.6,12.2 41.3,5.7 40.8,9.5 41.6,9.5 41.3,12.2 36.4,12.2 36.8,9.5 37.7,9.5 38.7,3.3 
		37.8,3.3 38.2,0.9 42,0.9 44.9,6.4 45.4,3.3 44.6,3.3 44.9,0.9 49.7,0.9 49.3,3.3 48.4,3.3 	"/>
	<polygon class="st0" points="59.4,9.5 60.5,9.5 61.7,3.3 60.5,3.3 60.9,0.9 69.7,0.9 69.1,4.5 66.3,4.5 66.5,3.3 64.7,3.3 
		64.4,4.9 66.6,4.9 66.3,7.6 63.9,7.6 63.6,9.5 65.7,9.5 66,8.1 68.6,8.1 68,12.2 59.1,12.2 	"/>
	<path class="st0" d="M54.4,3.3c1.1-0.1,1.5,0.5,2,1.5h2.7l0.7-3.9h-2.2l-0.3,0.7c-0.8-0.9-1.3-0.9-2.4-1c-1.5,0-3.1,0.5-4.3,1.7
		c-1.2,1.1-1.7,2.6-2,4.2c-0.4,3.1,1.8,5.8,4.8,5.8c1.1,0,2.1-0.2,2.8-0.9l0.1,0.9h2.3l0.9-6.4h-6L53,8h2.9
		c-0.7,1.4-1.6,1.6-2.6,1.5c-0.9-0.1-2-1.2-1.6-3.3C52,4.2,53.3,3.4,54.4,3.3z"/>
	<path class="st0" d="M32.4,3.3h0.8l-1,6.2h-1.5l-1.5-8.7H24l-0.5,2.6h0.8l-3,6.1H20l-1.2-1.9c1.5-0.4,2.4-1.3,2.7-2.9
		c0.2-1.2-0.1-2.2-0.8-3C19.9,1,19,0.9,17.8,0.9h-5.1l-0.5,2.7h0.9l-0.9,6.1h-0.9L11,12.2h4.7L16,9.7l-0.6,0l0.2-1.3l2.2,3.9h6.8
		L25,9.6h-0.8l0.3-0.8h2.8l0,0.8h-0.8l-0.3,2.6h9.5l0.4-2.6h-0.9l1-6.2h1l0.3-2.4h-5L32.4,3.3z M18.4,4.7c-0.1,0.4-0.3,0.8-0.7,1.1
		c-0.3,0.2-0.8,0.1-1.2,0.1h-0.6l0.2-2.5h1c0.4,0,0.7,0,1,0.3C18.4,3.9,18.5,4.3,18.4,4.7z M25.9,6.3L26.9,4l0.4,2.3H25.9z"/>
	<path class="st0" d="M5.6,5.8L5.2,8h2.9C7.3,9.4,6.5,9.6,5.5,9.5c-0.9-0.1-2-1.2-1.6-3.3c0.3-2.1,1.6-2.9,2.7-2.9
		c1.1-0.1,1.5,0.5,2,1.5h2.7l0.7-3.9H9.6L9.3,1.6C8.5,0.7,8,0.6,7,0.6c-1.5,0-3.1,0.5-4.3,1.7c-1.2,1.1-1.7,2.6-2,4.2
		c-0.4,3.1,1.8,5.8,4.8,5.8c1.1,0,2.1-0.2,2.8-0.9l0.1,0.9h2.3l0.9-6.4H5.6z"/>
	<path class="st0" d="M75.5,0.9h-5.1l-0.5,2.7h0.9l-0.9,6.1h-0.9l-0.3,2.5h4.7l0.3-2.5l-0.6,0l0.2-1.3l2.2,3.9h3l0.5-2.6h-1.2
		l-1.2-1.9c1.5-0.4,2.4-1.3,2.7-2.9c0.2-1.2-0.1-2.2-0.8-3C77.5,1,76.6,0.9,75.5,0.9z M76.1,4.7c-0.1,0.4-0.3,0.8-0.7,1.1
		C75,6,74.6,5.9,74.1,5.9h-0.6l0.2-2.5h1c0.4,0,0.7,0,1,0.3C76,3.9,76.1,4.3,76.1,4.7z"/>
	<path class="st0" d="M81,12.1L81,12.1c-0.4,0-0.7-0.2-1-0.4c-0.2-0.3-0.4-0.6-0.4-1c0-0.7,0.6-1.3,1.3-1.3c0.8,0,1.4,0.6,1.4,1.4
		C82.4,11.5,81.7,12.1,81,12.1z M81,9.6c-0.6,0-1.1,0.5-1.2,1.1c0,0.3,0.1,0.6,0.3,0.9c0.2,0.2,0.5,0.4,0.8,0.4
		c0.7,0,1.2-0.5,1.2-1.2C82.2,10.1,81.6,9.6,81,9.6z"/>
	<g>
		<path class="st0" d="M81.7,10.4c0-0.1-0.1-0.3-0.2-0.3C81.4,10,81.3,10,81.2,10h-0.7v1.5h0.2v-0.7H81l0.4,0.7h0.3l-0.4-0.7
			C81.5,10.8,81.7,10.7,81.7,10.4z M81.1,10.6h-0.4v-0.5h0.4c0.2,0,0.4,0,0.4,0.2C81.5,10.6,81.3,10.6,81.1,10.6L81.1,10.6z"/>
	</g>
</g>
</svg>
