<?xml version="1.0" encoding="utf-8"?>
<!-- Generator: Adobe Illustrator 17.0.1, SVG Export Plug-In . SVG Version: 6.00 Build 0)  -->
<!DOCTYPE svg PUBLIC "-//W3C//DTD SVG 1.1//EN" "http://www.w3.org/Graphics/SVG/1.1/DTD/svg11.dtd">
<svg version="1.1" id="Layer_1" xmlns="http://www.w3.org/2000/svg" xmlns:xlink="http://www.w3.org/1999/xlink" x="0px" y="0px"
	 width="310.493px" height="72.895px" viewBox="0 0 310.493 72.895" enable-background="new 0 0 310.493 72.895"
	 xml:space="preserve">
<g>
	<path fill="#ffffff" d="M4.429,40.054V4.14H0V0.433h12.468V4.14H8.04v35.914H4.429z"/>
	<path fill="#ffffff" d="M25.464,40.054V21.712h-5.103v18.342h-3.659V0.433h3.659v17.668h5.103V0.433h3.659v39.621H25.464z"/>
	<path fill="#ffffff" d="M34.609,40.054V0.433h10.495V4.14h-6.836v13.913h4.814v3.659h-4.814v14.731h7.077v3.611H34.609z"/>
	<path fill="#ffffff" d="M73.311,40.054V28.066c0-5.729,0.048-11.41,0.096-17.138l-4.285,29.126h-3.226l-4.236-29.126
		c0.048,5.729,0.096,11.409,0.096,17.138v11.987h-3.37V0.433h4.91l4.188,30.955l4.188-30.955h5.055v39.621H73.311z"/>
	<path fill="#ffffff" d="M92.13,40.054l-0.866-6.644h-5.921l-0.867,6.644h-3.563l5.44-39.621h4.285l5.151,39.621H92.13z
		 M88.376,9.725c-0.818,6.836-1.685,13.576-2.6,20.316h5.055C90.012,23.3,89.146,16.56,88.376,9.725z"/>
	<path fill="#ffffff" d="M111.53,40.294l-1.204-2.167c-0.77,1.541-2.647,2.359-4.814,2.359c-3.418,0-5.97-1.733-5.97-6.74V6.788
		c0-4.333,2.119-6.788,6.259-6.788c4.236,0,6.018,2.455,6.018,6.788v6.981h-3.274V6.788c0-2.022-0.77-3.081-2.744-3.081
		c-1.878,0-2.6,1.059-2.6,3.081v26.959c0,2.07,1.107,3.129,2.551,3.129c1.733,0,2.696-1.011,2.84-2.84v-9.002h-3.033v-3.466h6.547
		v18.727H111.53z"/>
	<path fill="#ffffff" d="M127.126,40.054l-6.836-28.933c0.048,5.874,0.048,11.698,0.048,17.572v11.361h-3.177V0.433h4.381
		l6.066,29.029c-0.048-5.392-0.048-10.735-0.048-16.031V0.433h3.226v39.621H127.126z"/>
	<path fill="#ffffff" d="M136.27,40.054V0.433h3.659v39.621H136.27z"/>
	<path fill="#ffffff" d="M145.512,40.054V0.433h10.735V4.14h-7.077v14.105h4.862v3.659h-4.862v18.149H145.512z"/>
	<path fill="#ffffff" d="M160.529,40.054V0.433h3.659v39.621H160.529z"/>
	<path fill="#ffffff" d="M178.244,25.515h3.322v8.184c0,4.622-1.781,6.788-5.777,6.788c-4.14,0-6.307-2.166-6.307-6.691V6.836
		c0-4.573,2.167-6.836,6.307-6.836c3.899,0,5.777,2.166,5.777,6.74v7.029h-3.322V6.788c0-2.118-0.626-3.081-2.455-3.081
		c-1.781,0-2.6,1.011-2.6,3.081v26.959c0,2.118,0.867,3.129,2.6,3.129c1.781,0,2.455-1.011,2.455-3.129V25.515z"/>
	<path fill="#ffffff" d="M186.57,40.054V0.433h10.495V4.14h-6.836v13.913h4.814v3.659h-4.814v14.731h7.077v3.611H186.57z"/>
	<path fill="#ffffff" d="M211.843,40.054l-6.836-28.933c0.048,5.874,0.048,11.698,0.048,17.572v11.361h-3.177V0.433h4.381
		l6.066,29.029c-0.048-5.392-0.048-10.735-0.048-16.031V0.433h3.226v39.621H211.843z"/>
	<path fill="#ffffff" d="M224.068,40.054V4.14h-4.429V0.433h12.468V4.14h-4.429v35.914H224.068z"/>
	<path fill="#ffffff" d="M259.641,40.054V28.066c0-5.729,0.048-11.41,0.096-17.138l-4.285,29.126h-3.225l-4.236-29.126
		c0.048,5.729,0.096,11.409,0.096,17.138v11.987h-3.37V0.433h4.91l4.188,30.955l4.188-30.955h5.055v39.621H259.641z"/>
	<path fill="#ffffff" d="M268.544,40.054V0.433h3.659v39.621H268.544z"/>
	<path fill="#ffffff" d="M277.785,40.054V0.433h3.659v36.01h7.077v3.611H277.785z"/>
	<path fill="#ffffff" d="M292.707,40.054V0.433h10.495V4.14h-6.836v13.913h4.814v3.659h-4.814v14.731h7.077v3.611H292.707z"/>
</g>
<g>
	<path fill="#ffffff" d="M28.604,71.583v-4.081c0-1.95,0.017-3.884,0.033-5.834l-1.458,9.915H26.08l-1.442-9.915
		c0.017,1.95,0.033,3.884,0.033,5.834v4.081h-1.147V58.096h1.671l1.426,10.538l1.426-10.538h1.721v13.487H28.604z"/>
	<path fill="#ffffff" d="M34.256,71.583V58.096h1.246v13.487H34.256z"/>
	<path fill="#ffffff" d="M42.909,66.634h1.131v2.786c0,1.573-0.606,2.311-1.967,2.311c-1.409,0-2.147-0.737-2.147-2.278v-9.177
		c0-1.557,0.738-2.327,2.147-2.327c1.328,0,1.967,0.737,1.967,2.294v2.393h-1.131v-2.377c0-0.721-0.213-1.049-0.836-1.049
		c-0.606,0-0.885,0.344-0.885,1.049v9.177c0,0.721,0.295,1.065,0.885,1.065c0.606,0,0.836-0.344,0.836-1.065V66.634z"/>
	<path fill="#ffffff" d="M51.348,71.583V65.34h-1.737v6.244h-1.246V58.096h1.246v6.015h1.737v-6.015h1.246v13.487H51.348z"/>
	<path fill="#ffffff" d="M57.115,71.583V58.096h1.246v13.487H57.115z"/>
	<path fill="#ffffff" d="M66.865,71.665l-0.41-0.737c-0.262,0.524-0.901,0.803-1.639,0.803c-1.164,0-2.032-0.59-2.032-2.294v-9.177
		c0-1.475,0.721-2.31,2.131-2.31c1.442,0,2.048,0.836,2.048,2.31v2.377H65.85v-2.377c0-0.688-0.262-1.049-0.934-1.049
		c-0.639,0-0.885,0.361-0.885,1.049v9.177c0,0.705,0.377,1.065,0.869,1.065c0.59,0,0.917-0.344,0.967-0.967V66.47h-1.032v-1.18
		h2.229v6.375H66.865z"/>
	<path fill="#ffffff" d="M74.846,71.583l-0.295-2.262h-2.016l-0.295,2.262h-1.213l1.852-13.487h1.459l1.754,13.487H74.846z
		 M73.567,61.259c-0.279,2.327-0.574,4.621-0.885,6.916h1.721C74.125,65.88,73.83,63.586,73.567,61.259z"/>
	<path fill="#ffffff" d="M83.563,71.583l-2.327-9.849c0.017,2,0.017,3.982,0.017,5.981v3.868h-1.082V58.096h1.491l2.065,9.882
		c-0.017-1.835-0.017-3.654-0.017-5.457v-4.425h1.098v13.487H83.563z"/>
	<path fill="#ffffff" d="M98.18,71.583l-0.295-2.262h-2.016l-0.295,2.262h-1.212l1.852-13.487h1.458l1.754,13.487H98.18z
		 M96.902,61.259c-0.279,2.327-0.574,4.621-0.885,6.916h1.721C97.459,65.88,97.164,63.586,96.902,61.259z"/>
	<path fill="#ffffff" d="M104.407,71.583l-1.671-13.487h1.294c0.41,3.343,1.147,10.062,1.246,11.34
		c0.115-1.278,0.918-7.997,1.344-11.34h1.246l-1.787,13.487H104.407z"/>
	<path fill="#ffffff" d="M111.961,71.583V58.096h3.572v1.262h-2.327v4.736h1.639v1.246h-1.639v5.015h2.409v1.229H111.961z"/>
	<path fill="#ffffff" d="M123.186,71.583l-2.327-9.849c0.017,2,0.017,3.982,0.017,5.981v3.868h-1.082V58.096h1.491l2.065,9.882
		c-0.017-1.835-0.017-3.654-0.017-5.457v-4.425h1.098v13.487H123.186z"/>
	<path fill="#ffffff" d="M131.821,58.096h1.246v11.34c0,1.54-0.705,2.294-2.114,2.294c-1.41,0-2.114-0.754-2.114-2.294v-11.34h1.246
		v11.34c0,0.705,0.295,1.065,0.869,1.065c0.573,0,0.868-0.361,0.868-1.065V58.096z"/>
	<path fill="#ffffff" d="M137.507,71.583V58.096h3.572v1.262h-2.327v4.736h1.639v1.246h-1.639v5.015h2.409v1.229H137.507z"/>
	<path fill="#ffffff" d="M150.879,71.583V58.096h2.098c1.409,0,2.13,0.869,2.13,2.311v8.882c0,1.508-0.721,2.294-2.13,2.294H150.879
		z M153.861,60.423c0-0.672-0.295-1.065-0.885-1.065h-0.852v10.997h0.852c0.59,0,0.885-0.361,0.885-1.065V60.423z"/>
	<path fill="#ffffff" d="M159.531,71.583V58.096h1.246v13.487H159.531z"/>
	<path fill="#ffffff" d="M168.084,67.585c0-0.803-0.082-1-0.41-1.393c-0.655-0.787-1.311-1.295-2.098-2.245
		c-0.426-0.508-0.442-1-0.442-1.753v-2.016c0-1.507,0.689-2.228,2.098-2.228c1.491,0,2.048,0.721,2.048,2.228v2.459h-1.163v-2.294
		c0-0.672-0.181-1.131-0.852-1.131c-0.607,0-0.868,0.295-0.868,0.967v2c0,0.557,0.049,0.754,0.295,1.049
		c0.655,0.819,1.344,1.376,2.048,2.196c0.492,0.574,0.59,1.066,0.59,2.147v1.934c0,1.426-0.606,2.229-2.098,2.229
		c-1.458,0-2.098-0.803-2.098-2.229v-2.868h1.196v2.688c0,0.688,0.213,1.18,0.869,1.18c0.623,0,0.885-0.344,0.885-1V67.585z"/>
	<path fill="#ffffff" d="M174.737,71.583V59.358h-1.508v-1.262h4.245v1.262h-1.508v12.226H174.737z"/>
	<path fill="#ffffff" d="M184.7,71.583c-0.278-2.065-0.573-4.097-0.95-6.129c-0.099,0.016-0.197,0.016-0.295,0.016h-0.672v6.113
		h-1.246V58.096h2.048c1.557,0,2.344,0.656,2.344,2.425v2.688c0,0.983-0.328,1.639-1,1.983c0.442,2.13,0.803,4.31,1.131,6.391H184.7
		z M184.667,60.685c0-0.951-0.213-1.328-1.081-1.328h-0.803v4.982h0.819c0.77,0,1.065-0.344,1.065-1.114V60.685z"/>
	<path fill="#ffffff" d="M190.271,71.583V58.096h1.246v13.487H190.271z"/>
	<path fill="#ffffff" d="M198.923,66.634h1.131v2.786c0,1.573-0.606,2.311-1.967,2.311c-1.409,0-2.147-0.737-2.147-2.278v-9.177
		c0-1.557,0.738-2.327,2.147-2.327c1.328,0,1.967,0.737,1.967,2.294v2.393h-1.131v-2.377c0-0.721-0.213-1.049-0.836-1.049
		c-0.606,0-0.885,0.344-0.885,1.049v9.177c0,0.721,0.295,1.065,0.885,1.065c0.607,0,0.836-0.344,0.836-1.065V66.634z"/>
	<path fill="#ffffff" d="M205.461,71.583V59.358h-1.508v-1.262h4.245v1.262h-1.508v12.226H205.461z"/>
	<path fill="#ffffff" d="M218.275,72.894V56.785h0.918v16.109H218.275z"/>
	<path fill="#ffffff" d="M232.598,66.634h1.131v2.786c0,1.573-0.606,2.311-1.967,2.311c-1.409,0-2.147-0.737-2.147-2.278v-9.177
		c0-1.557,0.738-2.327,2.147-2.327c1.328,0,1.967,0.737,1.967,2.294v2.393h-1.131v-2.377c0-0.721-0.213-1.049-0.836-1.049
		c-0.606,0-0.885,0.344-0.885,1.049v9.177c0,0.721,0.295,1.065,0.885,1.065c0.607,0,0.836-0.344,0.836-1.065V66.634z"/>
	<path fill="#ffffff" d="M241.037,71.583V65.34H239.3v6.244h-1.246V58.096h1.246v6.015h1.737v-6.015h1.246v13.487H241.037z"/>
	<path fill="#ffffff" d="M246.804,71.583V58.096h1.246v13.487H246.804z"/>
	<path fill="#ffffff" d="M255.457,66.634h1.131v2.786c0,1.573-0.606,2.311-1.967,2.311c-1.409,0-2.147-0.737-2.147-2.278v-9.177
		c0-1.557,0.738-2.327,2.147-2.327c1.328,0,1.967,0.737,1.967,2.294v2.393h-1.131v-2.377c0-0.721-0.213-1.049-0.836-1.049
		c-0.606,0-0.885,0.344-0.885,1.049v9.177c0,0.721,0.295,1.065,0.885,1.065c0.607,0,0.836-0.344,0.836-1.065V66.634z"/>
	<path fill="#ffffff" d="M264.322,71.583l-0.295-2.262h-2.016l-0.295,2.262h-1.212l1.852-13.487h1.458l1.754,13.487H264.322z
		 M263.044,61.259c-0.279,2.327-0.574,4.621-0.885,6.916h1.721C263.601,65.88,263.306,63.586,263.044,61.259z"/>
	<path fill="#ffffff" d="M273.547,71.665l-0.41-0.737c-0.262,0.524-0.901,0.803-1.639,0.803c-1.163,0-2.032-0.59-2.032-2.294v-9.177
		c0-1.475,0.721-2.31,2.131-2.31c1.442,0,2.048,0.836,2.048,2.31v2.377h-1.114v-2.377c0-0.688-0.262-1.049-0.934-1.049
		c-0.639,0-0.885,0.361-0.885,1.049v9.177c0,0.705,0.377,1.065,0.869,1.065c0.59,0,0.918-0.344,0.967-0.967V66.47h-1.032v-1.18
		h2.229v6.375H273.547z"/>
	<path fill="#ffffff" d="M278.02,60.243c0-1.491,0.705-2.294,2.114-2.294c1.442,0,2.13,0.803,2.13,2.294v9.193
		c0,1.492-0.689,2.294-2.13,2.294c-1.409,0-2.114-0.803-2.114-2.294V60.243z M281.019,60.243c0-0.672-0.278-1.033-0.885-1.033
		c-0.574,0-0.869,0.361-0.869,1.033v9.193c0,0.705,0.295,1.065,0.869,1.065c0.606,0,0.885-0.361,0.885-1.065V60.243z"/>
</g>
<line fill="none" stroke="#ffffff" stroke-width="0.7681" x1="0.954" y1="49.726" x2="304.766" y2="49.726"/>
<g>
	<defs>
		<rect id="SVGID_1_" x="305.382" y="0.433" width="5.111" height="9.304"/>
	</defs>
	<clipPath id="SVGID_2_">
		<use xlink:href="#SVGID_1_"  overflow="visible"/>
	</clipPath>
	<path clip-path="url(#SVGID_2_)" fill="#ffffff" d="M309,7.9c-0.122-0.885-0.255-1.792-0.432-2.688
		c0.266-0.133,0.365-0.387,0.365-0.83V3.21c0-0.752-0.321-1.04-1.007-1.04h-0.885V7.9h0.653V5.356h0.254
		c0.133,0.841,0.232,1.681,0.332,2.544H309z M308.281,4.371c0,0.232-0.099,0.365-0.354,0.365h-0.232V2.834h0.232
		c0.299,0,0.354,0.177,0.354,0.509V4.371z M309.807,7.281c0,1.294-0.476,1.792-1.87,1.792c-1.372,0-1.858-0.498-1.858-1.792V2.9
		c0-1.361,0.465-1.803,1.858-1.803s1.87,0.442,1.87,1.803V7.281z M310.493,2.977c0-1.836-0.785-2.544-2.555-2.544
		c-1.759,0-2.555,0.708-2.555,2.544v4.215c0,1.836,0.796,2.544,2.555,2.544c1.77,0,2.555-0.708,2.555-2.544V2.977z"/>
</g>
</svg>
