<?xml version="1.0" encoding="utf-8"?>
<!-- Generator: Adobe Illustrator 23.0.0, SVG Export Plug-In . SVG Version: 6.00 Build 0)  -->
<svg version="1.1" id="Layer_2" xmlns="http://www.w3.org/2000/svg" xmlns:xlink="http://www.w3.org/1999/xlink" x="0px" y="0px"
	 viewBox="0 0 86.1 8.6" style="enable-background:new 0 0 86.1 8.6;" xml:space="preserve">
<style type="text/css">
	.st0{fill:#FFFFFF;}
</style>
<path class="st0" d="M22.1,5.4h-7.5c-0.1,0-0.2-0.1-0.3-0.2V3.7c0-0.2,0.1-0.3,0.3-0.3h7.5c0,0,0.1,0.1,0.2,0.1
	c0.1,0.1,0.2,0.2,0.2,0.3v1.5L22.1,5.4z M10.4,4H2.5V3.4h7.9l0.3,0.2L10.4,4L10.4,4z M34.3,3.8c0,0.1-0.1,0.1-0.2,0.1h-7.9V3.4h7.9
	c0.1,0,0.2,0.1,0.3,0.2C34.4,3.7,34.3,3.8,34.3,3.8z M11.9,3.3c0-0.6-0.3-0.9-0.9-0.9H1.3v4h1.3V4.9h8.5c0.6,0,0.9-0.3,0.9-0.9
	L11.9,3.3L11.9,3.3z M23.5,3.3c0-0.6-0.3-0.9-0.9-0.9H14c-0.6,0-0.9,0.3-0.9,0.9v2.2c0,0.6,0.3,1,0.9,1h8.7c0.6,0,0.9-0.3,0.9-1
	L23.5,3.3L23.5,3.3z M35.7,5.3c0-0.2-0.1-0.5-0.3-0.7c0.2-0.1,0.3-0.3,0.3-0.6V3.3c0-0.6-0.3-0.9-0.9-0.9h-9.7v4h1.2V4.9H34
	c0,0,0.1,0.1,0.2,0.2c0.1,0.1,0.2,0.2,0.2,0.3v1.1h1.3L35.7,5.3L35.7,5.3L35.7,5.3z M47.6,4.9c0-0.6-0.3-0.9-0.9-0.9h-8.2
	c-0.1,0-0.2-0.1-0.3-0.3l0.1-0.1c0.1-0.1,0.1-0.1,0.2-0.1h9.1v-1h-9.7c-0.6,0-0.9,0.3-0.9,0.9V4c0,0.6,0.3,0.9,0.9,0.9h8.2
	c0.2,0,0.3,0.1,0.3,0.3c0,0-0.1,0.1-0.1,0.1c-0.1,0.1-0.1,0.1-0.2,0.1H37v1h9.7c0.6,0,0.9-0.3,0.9-1V4.9L47.6,4.9z M59.6,5.4h-9.1
	l-0.2-0.2V3.7c0-0.1,0.1-0.2,0.2-0.3h9.1v-1H50c-0.6,0-0.9,0.3-0.9,0.9v2.2c0,0.6,0.3,1,0.9,1h9.6V5.4L59.6,5.4z M71.3,2.4h-1.1V4
	H62V2.4h-1.2v4H62V4.9h8.2v1.6h1.1V2.4z M83.4,5.4H74V4.9h9.4V4H74V3.4h9.4v-1H72.8v4h10.6V5.4L83.4,5.4z M84.3,2.4
	c-0.3,0-0.6,0.2-0.6,0.6s0.2,0.6,0.6,0.6c0.3,0,0.6-0.2,0.6-0.6S84.6,2.4,84.3,2.4z M84.3,2.5c0.3,0,0.5,0.2,0.5,0.5
	c0,0.3-0.2,0.5-0.5,0.5S83.8,3.2,83.8,3S84,2.5,84.3,2.5z M84.2,3h0.1l0.2,0.3h0.1L84.4,3c0.1,0,0.2-0.1,0.2-0.2
	c0-0.1-0.1-0.2-0.2-0.2h-0.2v0.7h0.1L84.2,3L84.2,3L84.2,3z M84.2,2.9V2.7h0.1c0.1,0,0.2,0,0.2,0.1c0,0.1-0.1,0.1-0.2,0.1H84.2z"/>
</svg>
